<svg width="318" height="57" viewBox="0 0 318 57" fill="none" xmlns="http://www.w3.org/2000/svg">
<path fill-rule="evenodd" clip-rule="evenodd" d="M133.12 23.3168L146.434 23.2858L146.416 19.3502L125.66 19.3419L125.698 37.5684L145.638 37.556C146.094 37.2872 149.554 33.9743 149.75 33.577L133.069 33.5123L133.086 30.2504L144.851 30.2169L144.836 26.3955L133.065 26.3431L133.12 23.3168Z" fill="#033953"/>
<path fill-rule="evenodd" clip-rule="evenodd" d="M98.227 37.4703L105.72 37.523L105.719 23.4269C108.142 23.4019 116.171 22.8501 114.308 27.0043C113.336 29.1719 109.364 28.5796 107.489 28.7702L107.47 32.7147C110.336 33.148 116.114 32.54 118.681 31.0761C121.724 29.3414 123.521 25.6931 120.872 22.7408C117.227 18.6795 109.897 19.3141 104.763 19.3141C102.744 19.3141 100.176 19.1753 98.2237 19.3507L98.227 37.4703Z" fill="#033953"/>
<path fill-rule="evenodd" clip-rule="evenodd" d="M80.5639 24.5165C80.9589 24.9037 83.7035 29.5696 83.9102 30.1887L78.8854 30.2532L76.8112 33.9905L86.2199 34.0114L88.2247 37.4321C89.7219 37.7525 94.1361 37.5005 95.9719 37.5273C95.7369 36.83 84.8912 19.9254 84.302 19.3145L76.9484 19.3243L65.3479 37.5206L72.9648 37.4961L80.5639 24.5165Z" fill="#033953"/>
<path fill-rule="evenodd" clip-rule="evenodd" d="M148.631 19.3561C149.061 19.9899 150.282 21.0462 150.886 21.6112C152.361 22.9904 156.367 27.3409 157.716 28.1929C157.29 29.0638 151.855 33.9889 150.488 35.2398C150.085 35.6089 148.458 37.2067 148.221 37.5673L156.606 37.5748C158.314 35.9765 159.581 34.363 161.207 32.8369C162.59 31.5389 174.932 20.2006 175.488 19.3507L167.679 19.3491C167.268 19.4954 162.891 23.8938 162.256 24.5779L156.918 19.3478L148.631 19.3561Z" fill="#033953"/>
<path fill-rule="evenodd" clip-rule="evenodd" d="M163.358 33.2179C163.989 33.9046 167.249 37.4043 167.834 37.5676L176.099 37.5733C175.949 37.2245 168.133 29.7087 167.548 29.3537L163.358 33.2179Z" fill="#033953"/>
<path d="M183.713 37.5029V23.5736H178.778V19.2618H194.664V23.5736H189.728V37.5029H183.713ZM218.625 37.5029V19.2618H224.578V27.5492L231.549 19.2618H238.55L224.578 35.9635V37.5029H218.625ZM263.569 37.5029V19.2618H277.08V23.2674H269.43V27.2045H276.328L273.062 31.1079H269.43V37.5029H263.569ZM280.226 19.2618H286.21V28.1358C286.21 29.4364 286.249 30.3772 286.328 30.9421C286.408 31.5119 286.548 31.9868 286.739 32.3709C286.969 32.8326 287.371 33.1935 287.942 33.4381C288.512 33.6818 289.212 33.8036 290.034 33.8036C290.857 33.8036 291.553 33.6829 292.122 33.4381C292.688 33.1946 293.093 32.8339 293.33 32.3709C293.525 31.9884 293.661 31.5119 293.741 30.9421C293.82 30.3772 293.859 29.4369 293.859 28.1358V26.8901V19.2618H299.843V28.9055C299.843 30.9075 299.7 32.3841 299.406 33.3359C299.114 34.2842 298.623 35.0954 297.931 35.7723C297.18 36.5067 296.147 37.0649 294.831 37.4348C293.515 37.8048 291.921 37.9876 290.045 37.9876C288.153 37.9876 286.559 37.8045 285.248 37.4348C283.938 37.0652 282.895 36.5114 282.138 35.7723C281.45 35.1001 280.963 34.2849 280.668 33.3359C280.372 32.3848 280.226 30.908 280.226 28.9055V27.0134V19.2618ZM303.561 37.5029V19.2618H309.575V33.2425H314.265L317.814 37.4849L303.561 37.5029Z" fill="#D7B56D"/>
<path d="M249.85 30.6913H254.094L251.097 22.2169L245.673 37.5029H239.689L247.303 19.2617H254.834L262.452 37.5029H256.474L255.358 34.2374H248.691L249.85 30.6913Z" fill="#D7B56D"/>
<path d="M228.409 33.7769L231.549 37.5028H238.55L231.921 29.5789L228.409 33.7769Z" fill="#D7B56D"/>
<path d="M204.293 30.6913H208.536L205.539 22.2169L200.115 37.5029H194.131L201.745 19.2617H209.276L216.895 37.5029H210.916L209.801 34.2374H203.133L204.293 30.6913Z" fill="#D7B56D"/>
<path d="M40.1548 46.3198H46.4701L46.4278 40.0125H40.1579L40.1548 46.3198ZM47.7539 48.8805H37.6028L37.6085 37.4518H48.9612L49.0378 48.8805H47.7539Z" fill="#D7B56D"/>
<path d="M40.1548 16.9921H46.4703L46.428 10.6846H40.1581L40.1548 16.9921ZM47.7542 19.5526H37.6031L37.6087 8.12411H48.9611L49.038 19.5526H47.7542Z" fill="#D7B56D"/>
<path d="M10.6941 16.8305L16.8596 16.9004L16.8709 10.6916L10.6967 10.7479L10.6941 16.8305ZM18.1228 19.4652L8.14243 19.3523L8.14707 8.2204L19.4257 8.11722L19.4056 19.4794L18.1228 19.4652Z" fill="#D7B56D"/>
<path d="M16.6869 40.2037L10.6987 40.1926V46.3198H16.6869V40.2037ZM9.41845 37.6398L19.2474 37.6576V48.8806H8.13821V37.6373L9.41845 37.6398Z" fill="#D7B56D"/>
<path d="M7.86122 23.869L3.61887 28.0962L7.95099 32.4283L12.1854 28.1934L7.86122 23.869ZM0.909297 27.1918L7.86922 20.2569L15.8055 28.1932L7.95099 36.0484L0 28.0977L0.909297 27.1918Z" fill="#D7B56D"/>
<path d="M48.9295 23.869L44.6871 28.0962L49.0193 32.4283L53.2536 28.1934L48.9295 23.869ZM41.9776 27.1918L48.9375 20.2569L56.8738 28.1932L49.0193 36.0484L41.0683 28.0977L41.9776 27.1918Z" fill="#D7B56D"/>
<path d="M28.1041 44.6366L23.8618 48.8632L28.1937 53.1956L32.4285 48.961L28.1041 44.6366ZM21.152 47.9588L28.1124 41.0247L36.0489 48.961L28.1934 56.8155L20.2429 48.8645L21.152 47.9588Z" fill="#D7B56D"/>
<path d="M28.1043 3.61248L23.862 7.83936L28.1938 12.1715L32.4285 7.93687L28.1043 3.61248ZM21.1521 6.93496L28.1126 6.10352e-05L36.0486 7.93687L28.1938 15.7916L20.2431 7.84065L21.1521 6.93496Z" fill="#D7B56D"/>
<path d="M27.3824 12.983L33.8827 6.48254L40.159 8.46571L40.1541 18.2724H37.6037L37.6076 10.3431L34.5946 9.391L29.1925 14.7931L27.3824 12.983Z" fill="#D7B56D"/>
<path d="M27.289 14.8865L21.7424 9.34015L19.4221 10.2698L19.4079 18.1899H16.8575L16.8745 8.53894L22.3628 6.34012L29.0991 13.0764L27.289 14.8865Z" fill="#D7B56D"/>
<path d="M28.9151 43.8287L22.4089 50.3104L16.6869 48.54V38.9306H19.2474V46.6603L21.6954 47.4174L27.1145 42.0186L28.9151 43.8287Z" fill="#D7B56D"/>
<path d="M29.1145 42.0264L34.6093 47.5216L37.6039 46.6433L37.608 38.732H40.1587L40.1533 48.557L33.8679 50.4004L27.3044 43.8367L29.1145 42.0264Z" fill="#D7B56D"/>
<path d="M38.8789 16.9922H48.6939L50.3827 22.4207L43.7775 29.0019L41.9772 27.1918L47.4838 21.7053L46.8142 19.5527H38.8789V16.9922Z" fill="#D7B56D"/>
<path d="M18.0686 19.3347L10.2927 19.3636L9.36047 21.7481L14.9009 27.2883L13.0908 29.0986L6.37024 22.3781L8.54378 16.8194L18.0686 16.7843V19.3347Z" fill="#D7B56D"/>
<path d="M38.8833 37.4518H46.7407L47.5788 34.6083L41.9078 28.9374L43.7182 27.1273L50.4594 33.8685L48.6482 40.0125H38.8833V37.4518Z" fill="#D7B56D"/>
<path d="M18.0622 40.1139L8.48216 40.1985L6.49899 33.8798L13.252 27.1273L15.0621 28.9374L9.40281 34.5967L10.3552 37.6313L18.0423 37.5632L18.0622 40.1139Z" fill="#D7B56D"/>
<path d="M19.6266 19.6865L19.567 24.3318L16.1246 28.1181L19.5435 31.2464L19.5606 37.3602L24.812 37.5067L28.2204 40.823L32.8012 37.3455H37.3526L37.3513 31.4904L40.7968 28.0456L37.5117 24.3213L37.4994 19.5844L32.1478 19.596L28.2434 16.0672L24.6284 19.6422L19.6266 19.6865ZM17.0292 23.324L17.1082 17.1578L23.5568 17.1013L28.1562 12.5522L33.1257 17.0438L40.0431 17.0286L40.0598 23.3542L44.3006 28.1622L39.902 32.5601L39.9033 39.9062H33.6429L28.0104 44.1816L23.7433 40.0293L17.0168 39.8417L16.9962 32.37L12.524 28.2783L17.0292 23.324Z" fill="#D7B56D"/>
</svg>
